<mxfile host="app.diagrams.net" agent="Mozilla/5.0 (Windows NT 10.0; Win64; x64) AppleWebKit/537.36 (KHTML, like Gecko) Chrome/138.0.0.0 Safari/537.36" version="28.0.7">
  <diagram name="Page-1" id="MI2d0yZVeNrwg22PB57W">
    <mxGraphModel dx="827" dy="984" grid="1" gridSize="10" guides="1" tooltips="1" connect="1" arrows="1" fold="1" page="1" pageScale="1" pageWidth="850" pageHeight="1100" math="0" shadow="0">
      <root>
        <mxCell id="0" />
        <mxCell id="1" parent="0" />
        <mxCell id="h-ob-_Q3xaoMKghEiiFv-1" value="" style="edgeStyle=none;curved=1;rounded=0;orthogonalLoop=1;jettySize=auto;html=1;fontSize=12;startSize=8;endSize=8;" edge="1" parent="1" source="h-ob-_Q3xaoMKghEiiFv-2">
          <mxGeometry relative="1" as="geometry">
            <mxPoint x="400" y="150" as="targetPoint" />
          </mxGeometry>
        </mxCell>
        <mxCell id="h-ob-_Q3xaoMKghEiiFv-2" value="start" style="strokeWidth=2;html=1;shape=mxgraph.flowchart.terminator;whiteSpace=wrap;" vertex="1" parent="1">
          <mxGeometry x="350" y="70" width="100" height="60" as="geometry" />
        </mxCell>
        <mxCell id="h-ob-_Q3xaoMKghEiiFv-3" value="" style="edgeStyle=none;curved=1;rounded=0;orthogonalLoop=1;jettySize=auto;html=1;fontSize=12;startSize=8;endSize=8;exitX=0.495;exitY=0.906;exitDx=0;exitDy=0;exitPerimeter=0;" edge="1" parent="1" target="h-ob-_Q3xaoMKghEiiFv-5">
          <mxGeometry relative="1" as="geometry">
            <mxPoint x="399.5" y="204.3599999999999" as="sourcePoint" />
          </mxGeometry>
        </mxCell>
        <mxCell id="h-ob-_Q3xaoMKghEiiFv-4" value="" style="edgeStyle=none;curved=1;rounded=0;orthogonalLoop=1;jettySize=auto;html=1;fontSize=12;startSize=8;endSize=8;" edge="1" parent="1" source="h-ob-_Q3xaoMKghEiiFv-5" target="h-ob-_Q3xaoMKghEiiFv-8">
          <mxGeometry relative="1" as="geometry" />
        </mxCell>
        <mxCell id="h-ob-_Q3xaoMKghEiiFv-5" value="Read Num" style="shape=parallelogram;html=1;strokeWidth=2;perimeter=parallelogramPerimeter;whiteSpace=wrap;rounded=1;arcSize=12;size=0.23;" vertex="1" parent="1">
          <mxGeometry x="345" y="230" width="110" height="60" as="geometry" />
        </mxCell>
        <mxCell id="h-ob-_Q3xaoMKghEiiFv-6" value="&quot;Enter max number : &quot;" style="strokeWidth=2;html=1;shape=mxgraph.flowchart.display;whiteSpace=wrap;" vertex="1" parent="1">
          <mxGeometry x="345" y="150" width="100" height="60" as="geometry" />
        </mxCell>
        <mxCell id="h-ob-_Q3xaoMKghEiiFv-7" value="" style="edgeStyle=none;curved=1;rounded=0;orthogonalLoop=1;jettySize=auto;html=1;fontSize=12;startSize=8;endSize=8;" edge="1" parent="1" source="h-ob-_Q3xaoMKghEiiFv-8" target="h-ob-_Q3xaoMKghEiiFv-10">
          <mxGeometry relative="1" as="geometry" />
        </mxCell>
        <mxCell id="h-ob-_Q3xaoMKghEiiFv-8" value="n = 1" style="rounded=1;whiteSpace=wrap;html=1;absoluteArcSize=1;arcSize=14;strokeWidth=2;" vertex="1" parent="1">
          <mxGeometry x="345" y="310" width="110" height="50" as="geometry" />
        </mxCell>
        <mxCell id="h-ob-_Q3xaoMKghEiiFv-9" value="" style="edgeStyle=none;curved=1;rounded=0;orthogonalLoop=1;jettySize=auto;html=1;fontSize=12;startSize=8;endSize=8;" edge="1" parent="1" source="h-ob-_Q3xaoMKghEiiFv-10" target="h-ob-_Q3xaoMKghEiiFv-11">
          <mxGeometry relative="1" as="geometry" />
        </mxCell>
        <mxCell id="h-ob-_Q3xaoMKghEiiFv-10" value="n &amp;lt;= Num" style="strokeWidth=2;html=1;shape=mxgraph.flowchart.decision;whiteSpace=wrap;" vertex="1" parent="1">
          <mxGeometry x="350" y="380" width="100" height="60" as="geometry" />
        </mxCell>
        <mxCell id="h-ob-_Q3xaoMKghEiiFv-11" value="n % 2 == 0" style="strokeWidth=2;html=1;shape=mxgraph.flowchart.decision;whiteSpace=wrap;" vertex="1" parent="1">
          <mxGeometry x="350" y="460" width="100" height="60" as="geometry" />
        </mxCell>
        <mxCell id="h-ob-_Q3xaoMKghEiiFv-12" value="&lt;font style=&quot;font-size: 12px;&quot;&gt;True&lt;/font&gt;" style="text;html=1;align=center;verticalAlign=middle;resizable=0;points=[];autosize=1;strokeColor=none;fillColor=none;fontSize=16;" vertex="1" parent="1">
          <mxGeometry x="405" y="430" width="50" height="30" as="geometry" />
        </mxCell>
        <mxCell id="h-ob-_Q3xaoMKghEiiFv-13" value="&quot;is even number&quot;" style="strokeWidth=2;html=1;shape=mxgraph.flowchart.display;whiteSpace=wrap;" vertex="1" parent="1">
          <mxGeometry x="455" y="530" width="100" height="60" as="geometry" />
        </mxCell>
        <mxCell id="h-ob-_Q3xaoMKghEiiFv-14" style="edgeStyle=orthogonalEdgeStyle;rounded=0;orthogonalLoop=1;jettySize=auto;html=1;entryX=0.5;entryY=0;entryDx=0;entryDy=0;entryPerimeter=0;fontSize=12;startSize=8;endSize=8;" edge="1" parent="1" source="h-ob-_Q3xaoMKghEiiFv-11" target="h-ob-_Q3xaoMKghEiiFv-13">
          <mxGeometry relative="1" as="geometry" />
        </mxCell>
        <mxCell id="h-ob-_Q3xaoMKghEiiFv-15" value="&quot;is Odd number&quot;" style="strokeWidth=2;html=1;shape=mxgraph.flowchart.display;whiteSpace=wrap;" vertex="1" parent="1">
          <mxGeometry x="245" y="530" width="100" height="60" as="geometry" />
        </mxCell>
        <mxCell id="h-ob-_Q3xaoMKghEiiFv-16" style="edgeStyle=orthogonalEdgeStyle;rounded=0;orthogonalLoop=1;jettySize=auto;html=1;entryX=0.5;entryY=0;entryDx=0;entryDy=0;entryPerimeter=0;fontSize=12;startSize=8;endSize=8;" edge="1" parent="1" source="h-ob-_Q3xaoMKghEiiFv-11" target="h-ob-_Q3xaoMKghEiiFv-15">
          <mxGeometry relative="1" as="geometry" />
        </mxCell>
        <mxCell id="h-ob-_Q3xaoMKghEiiFv-17" style="edgeStyle=orthogonalEdgeStyle;rounded=0;orthogonalLoop=1;jettySize=auto;html=1;exitX=0.5;exitY=1;exitDx=0;exitDy=0;exitPerimeter=0;entryX=0.5;entryY=0;entryDx=0;entryDy=0;entryPerimeter=0;fontSize=12;startSize=8;endSize=8;" edge="1" parent="1" source="h-ob-_Q3xaoMKghEiiFv-13">
          <mxGeometry relative="1" as="geometry">
            <mxPoint x="400" y="640" as="targetPoint" />
          </mxGeometry>
        </mxCell>
        <mxCell id="h-ob-_Q3xaoMKghEiiFv-18" style="edgeStyle=orthogonalEdgeStyle;rounded=0;orthogonalLoop=1;jettySize=auto;html=1;exitX=0.5;exitY=1;exitDx=0;exitDy=0;exitPerimeter=0;fontSize=12;startSize=8;endSize=8;" edge="1" parent="1" source="h-ob-_Q3xaoMKghEiiFv-15">
          <mxGeometry relative="1" as="geometry">
            <mxPoint x="400" y="640" as="targetPoint" />
          </mxGeometry>
        </mxCell>
        <mxCell id="h-ob-_Q3xaoMKghEiiFv-19" style="edgeStyle=orthogonalEdgeStyle;rounded=0;orthogonalLoop=1;jettySize=auto;html=1;entryX=0;entryY=0.5;entryDx=0;entryDy=0;entryPerimeter=0;fontSize=12;startSize=8;endSize=8;exitX=0.5;exitY=1;exitDx=0;exitDy=0;" edge="1" parent="1" source="h-ob-_Q3xaoMKghEiiFv-22" target="h-ob-_Q3xaoMKghEiiFv-10">
          <mxGeometry relative="1" as="geometry">
            <mxPoint x="400" y="640" as="sourcePoint" />
            <Array as="points">
              <mxPoint x="400" y="710" />
              <mxPoint x="230" y="710" />
              <mxPoint x="230" y="410" />
            </Array>
          </mxGeometry>
        </mxCell>
        <mxCell id="h-ob-_Q3xaoMKghEiiFv-20" value="&lt;font style=&quot;font-size: 12px;&quot;&gt;True&lt;/font&gt;" style="text;html=1;align=center;verticalAlign=middle;resizable=0;points=[];autosize=1;strokeColor=none;fillColor=none;fontSize=16;" vertex="1" parent="1">
          <mxGeometry x="470" y="460" width="50" height="30" as="geometry" />
        </mxCell>
        <mxCell id="h-ob-_Q3xaoMKghEiiFv-21" value="&lt;font style=&quot;font-size: 12px;&quot;&gt;False&lt;/font&gt;" style="text;html=1;align=center;verticalAlign=middle;resizable=0;points=[];autosize=1;strokeColor=none;fillColor=none;fontSize=16;" vertex="1" parent="1">
          <mxGeometry x="290" y="460" width="50" height="30" as="geometry" />
        </mxCell>
        <mxCell id="h-ob-_Q3xaoMKghEiiFv-22" value="n = n + 1" style="rounded=1;whiteSpace=wrap;html=1;absoluteArcSize=1;arcSize=14;strokeWidth=2;" vertex="1" parent="1">
          <mxGeometry x="345" y="640" width="110" height="50" as="geometry" />
        </mxCell>
        <mxCell id="h-ob-_Q3xaoMKghEiiFv-23" value="stop" style="strokeWidth=2;html=1;shape=mxgraph.flowchart.terminator;whiteSpace=wrap;" vertex="1" parent="1">
          <mxGeometry x="350" y="730" width="100" height="60" as="geometry" />
        </mxCell>
        <mxCell id="h-ob-_Q3xaoMKghEiiFv-24" style="edgeStyle=elbowEdgeStyle;rounded=0;orthogonalLoop=1;jettySize=auto;html=1;exitX=1;exitY=0.5;exitDx=0;exitDy=0;exitPerimeter=0;entryX=1;entryY=0.5;entryDx=0;entryDy=0;entryPerimeter=0;fontSize=12;startSize=8;endSize=8;" edge="1" parent="1" source="h-ob-_Q3xaoMKghEiiFv-10" target="h-ob-_Q3xaoMKghEiiFv-23">
          <mxGeometry relative="1" as="geometry">
            <Array as="points">
              <mxPoint x="570" y="580" />
            </Array>
          </mxGeometry>
        </mxCell>
        <mxCell id="h-ob-_Q3xaoMKghEiiFv-25" value="&lt;font style=&quot;font-size: 12px;&quot;&gt;False&lt;/font&gt;" style="text;html=1;align=center;verticalAlign=middle;resizable=0;points=[];autosize=1;strokeColor=none;fillColor=none;fontSize=16;" vertex="1" parent="1">
          <mxGeometry x="440" y="370" width="50" height="30" as="geometry" />
        </mxCell>
      </root>
    </mxGraphModel>
  </diagram>
</mxfile>
